<svg width="673" height="691" viewBox="0 0 673 691" fill="none" xmlns="http://www.w3.org/2000/svg">
<path d="M363.349 -84.543C371.181 -85.1996 379.051 -85.2647 386.892 -84.738C397.292 -83.919 407.692 -85.128 418.092 -84.088C424.683 -84.504 431.092 -82.437 437.592 -82.671C441.596 -82.437 445.392 -81.046 449.422 -80.825C455.402 -80.37 461.122 -78.407 466.998 -77.484L467.856 -76.405L475.656 -76.314C475.864 -76.028 476.241 -75.43 476.436 -75.131C479.53 -74.403 483.508 -75.495 485.913 -72.882C489.977 -72.5081 493.988 -71.6885 497.873 -70.438L499.433 -68.748L503.853 -68.592C504.048 -68.319 504.464 -67.773 504.685 -67.513C507.272 -67.7541 509.865 -67.1275 512.056 -65.732C513.642 -65.121 515.215 -64.432 516.866 -63.938L517.815 -63.028C523.561 -63.535 528.527 -60.428 532.986 -57.256C539.476 -55.9359 545.704 -53.5554 551.42 -50.21C552.509 -49.5965 553.713 -49.2158 554.956 -49.092L556.503 -47.415L559.012 -47.311L559.857 -45.53C562.198 -44.3766 564.701 -43.5875 567.28 -43.19C567.548 -42.665 567.945 -42.2166 568.434 -41.8869C568.923 -41.5572 569.488 -41.357 570.075 -41.305C570.569 -40.577 571.05 -39.836 571.557 -39.095C573.143 -39.901 574.586 -39.095 575.717 -37.912C577.94 -37.7813 580.043 -36.859 581.645 -35.312C584.023 -34.0666 586.289 -32.6182 588.418 -30.983C588.363 -30.361 588.552 -29.742 588.945 -29.2567C589.338 -28.7715 589.904 -28.4582 590.524 -28.383C598.883 -27.226 604.369 -19.946 612.052 -17.203C613.729 -15.487 614.99 -13.095 617.252 -12.003C619.189 -12.107 620.684 -10.807 622.01 -9.62401C621.867 -7.14101 624.61 -6.751 626.313 -5.997C628.016 -5.243 629.16 -3.566 630.213 -2.097L631.721 -1.66797C632.969 -0.493256 634.332 0.552071 635.79 1.45202C636.063 2.07602 636.375 2.75201 636.687 3.35001C635.669 3.60759 634.635 3.80296 633.593 3.93503C633.196 2.59489 632.687 1.29034 632.072 0.0350266L627.6 -0.0299988C626.469 -1.954 625.117 -3.74802 623.973 -5.60702C622.517 -5.86701 621.074 -6.15301 619.67 -6.45201C621.165 -10.352 616.901 -10.781 614.6 -11.314C612.52 -11.834 611.285 -13.641 609.998 -15.214C607.047 -16.618 603.342 -17.567 601.626 -20.609L600.066 -20.973C599.357 -21.9913 598.584 -22.9639 597.752 -23.885C592.552 -23.391 589.003 -27.863 584.609 -29.696C582.568 -30.853 578.798 -31.789 579.968 -34.896L578.356 -35.312C576.952 -36.716 574.95 -35.312 573.351 -36.105C568.697 -37.561 564.641 -40.317 560.689 -43.06C559.821 -43.6504 559.004 -44.3113 558.245 -45.036C555.372 -43.983 553.279 -46.518 551.004 -47.766C548.508 -48.572 545.895 -48.871 543.542 -50.054C543.048 -50.886 542.515 -51.679 541.982 -52.472L537.614 -52.667C535.833 -54.383 533.246 -54.435 531.114 -55.267C529.13 -55.9719 527.207 -56.8416 525.368 -57.867C521.663 -57.971 518.452 -59.882 515.254 -61.507C506.947 -62.677 499.368 -66.993 490.996 -68.007L490.112 -68.982C487.707 -69.19 484.431 -68.657 482.702 -70.828L481.116 -71.14L481.038 -71.712H482.338V-72.388C479.998 -72.128 477.645 -71.4 475.331 -71.829C468.675 -73.805 461.772 -74.585 454.947 -75.625L454.115 -76.678C447.394 -76.223 440.946 -78.264 434.368 -79.122C420.9 -79.538 407.497 -81.644 394.068 -80.994L392.768 -79.603C392.495 -64.393 393.041 -49.183 392.768 -33.96C391.104 -15.201 393.951 3.53202 393.041 22.291C392.274 28.791 392.599 35.447 392.651 42.025C404.611 42.285 416.48 44.053 428.401 44.716L429.012 45.613L438.229 45.964C441.011 46.835 443.78 47.823 446.575 48.746C452.437 49.1181 458.205 50.4032 463.67 52.555L465.321 52.88L465.425 54.089C464.489 54.089 463.579 54.154 462.669 54.206C462.981 55.22 463.319 56.234 463.709 57.235L467.323 57.469L467.427 55.324C471.647 54.928 475.876 55.9977 479.4 58.353C485.224 59.328 490.528 61.902 495.949 64.099C497.589 65.0235 499.374 65.6651 501.227 65.997C501.747 66.725 502.319 67.453 502.904 68.155C507.107 69.0915 511.011 71.057 514.266 73.875L516.307 74.395C517.048 76.007 518.738 76.553 520.337 76.995L522.014 78.503C525.81 78.503 527.669 83.066 531.608 82.728C531.608 83.196 531.608 84.119 531.686 84.574C533.896 85.874 536.015 87.746 538.693 88.058C539.2 88.838 539.746 89.579 540.292 90.346L542.06 90.554C542.645 91.048 543.256 91.529 543.88 91.997C544.621 92.985 545.427 93.934 546.233 94.883L548.027 95.065C548.534 95.611 549.067 96.157 549.6 96.703C555.632 97.444 557.595 104.1 562.483 106.804C562.548 107.207 562.691 108.013 562.756 108.416C565.278 108.676 566.994 110.587 568.723 112.316C570.217 112.681 571.591 113.424 572.714 114.474C575.314 114.721 577.225 112.719 579.344 111.562C581.06 109.547 583.244 107.987 584.544 105.582C587.326 102.227 590.642 99.3548 594.359 97.08C595.659 96.326 596.049 94.805 596.959 93.713C600.374 89.7191 604.156 86.0544 608.256 82.767C609.426 81.727 610.856 80.869 611.298 79.218L613.014 76.397L615.354 76.15C616.16 71.873 621.672 70.95 622.296 66.686C624.168 66.244 625.949 65.49 627.808 64.957C627.808 64.177 627.951 63.384 628.042 62.617C631.643 58.717 634.789 54.544 638.442 50.735L640.262 50.566L641.874 48.278C645.306 46.835 646.879 43.234 649.037 40.413C649.684 40.2737 650.276 39.9466 650.739 39.4726C651.201 38.9986 651.514 38.3987 651.637 37.748C653.055 36.8195 654.394 35.776 655.641 34.628C656.549 33.8757 657.151 32.8166 657.331 31.651C658.067 31.0568 658.84 30.5098 659.645 30.013C660.464 28.557 660.672 26.672 659.125 25.606C654.393 22.291 650.948 17.585 646.203 14.309C645.02 13.308 644.149 12.008 643.044 10.942C642.08 9.70316 640.91 8.63907 639.586 7.79603C639.235 7.04202 638.897 6.30101 638.585 5.54701C639.482 5.54701 640.379 5.46902 641.289 5.43002C641.874 8.97902 645.696 9.81101 648.322 11.475C648.704 12.5434 649.321 13.512 650.129 14.309C656.785 18.885 661.829 25.32 668.199 30.26C668.199 30.715 668.342 31.56 668.381 32.054C670.981 34.199 673.581 36.435 676.025 38.814C678.469 41.193 680.029 44.014 682.525 46.055C684.096 47.3178 685.479 48.7972 686.633 50.449C689.467 55.142 694.524 57.963 697.319 62.708C699.373 65.88 702.064 68.662 703.572 72.198C705.804 74.4477 707.872 76.8545 709.76 79.4C711.58 82 712.36 85.354 714.96 87.343C717.066 88.734 716.923 91.724 718.795 93.375C722.76 97.821 724.359 103.71 727.895 108.468C727.837 109.421 728.014 110.373 728.411 111.241C728.808 112.11 729.412 112.867 730.17 113.447C732.419 115.605 733.784 118.491 735.825 120.831C736.553 126.031 741.35 129.684 742.325 134.845L743.976 136.405C743.976 136.847 744.132 137.705 744.197 138.173L745.263 139.018C745.77 141.618 745.692 144.53 747.863 146.337C748.678 148.323 749.25 150.401 749.566 152.525L751.893 154.033C752.088 156.789 752.478 159.961 754.402 162.119C755.276 164.014 755.942 165.997 756.391 168.034C759.862 173.572 760.616 180.254 763.047 186.234C764.776 189.211 765.023 192.825 765.647 196.179C768.975 200.222 766.947 206.332 770.301 210.479C770.699 213.66 771.281 216.816 772.043 219.93C773.746 225.78 773.343 232.046 775.189 237.87C776.138 240.691 775.995 243.694 776.268 246.645L777.386 247.477C778.601 253.702 779.319 260.014 779.531 266.353C779.765 273.789 781.117 281.147 780.987 288.609C780.987 299.009 781.234 309.279 780.987 319.627C779.258 318.769 779.336 316.481 778.14 315.142C777.854 310.917 777.685 306.718 777.633 302.519C777.191 302.077 776.749 301.648 776.333 301.219C768.273 301.375 760.265 300.257 752.231 300.543C730.222 300.933 708.187 300.283 686.204 301.388C682.686 301.068 679.154 300.929 675.622 300.972C652.673 301.119 629.736 301.249 606.813 301.362C603.884 301.464 600.956 301.149 598.116 300.426C594.983 300.049 591.941 301.583 588.821 301.18C583.678 300.636 578.489 300.71 573.364 301.401C556.62 301.83 539.876 301.557 523.132 301.817L522.833 302.298C521.026 315.298 521.39 328.987 516.229 341.298C515.306 343.781 514.929 346.42 514.019 348.929C513.122 352.478 510.808 355.429 509.573 358.822C508.273 362.488 505.738 365.543 504.035 369.014C501.435 374.045 497.704 378.348 494.454 382.989L492.725 383.21C492.725 384.003 492.595 384.783 492.517 385.589C487.798 388.683 485.445 394.221 481.051 397.692C479.075 398.992 477.086 400.292 475.149 401.592L474.993 403.36C473.784 403.88 472.302 404.023 471.483 405.141C469.247 407.819 465.841 409.041 463.137 411.199C460.043 413.149 457.274 415.632 453.92 417.114C450.178 419.336 446.173 421.083 441.999 422.314C441.674 422.834 441.362 423.341 441.05 423.874C438.45 424.03 436.214 425.564 433.887 426.604C429.649 427.997 425.257 428.87 420.809 429.204C418.596 428.973 416.377 429.586 414.595 430.92C409.109 431.583 403.493 432.974 398.007 432.22C398.228 431.531 398.436 430.842 398.605 430.153C397.883 429.798 397.112 429.553 396.317 429.425C395.732 430.998 394.068 431.466 392.794 432.272C392.482 433.507 393.509 434.417 394.094 435.392L395.329 434.638C395.641 475.25 395.866 515.858 396.005 556.461C395.628 558.489 398.371 559.308 400.009 558.476C405.313 558.346 410.669 558.723 415.96 557.917C421.024 556.913 426.165 556.347 431.326 556.227L432.132 555.096C437.813 554.667 443.234 552.704 449.032 552.821L449.903 551.794C452.503 551.339 455.61 551.521 457.872 549.844C462.799 548.102 468.142 547.985 472.965 545.944C475.214 544.267 478.23 544.202 480.765 543.188C485.376 541.009 490.159 539.213 495.065 537.819C499.202 535.423 503.554 533.421 508.065 531.839C510.977 531.215 513.018 528.875 515.527 527.445C520.415 524.091 525.927 521.816 530.789 518.423C534.559 515.823 537.939 512.365 542.385 510.974C543.412 509.947 544.361 508.855 545.427 507.867C545.896 508.892 546.715 509.717 547.737 510.194C548.759 510.67 549.917 510.767 551.004 510.467C552.967 510.298 552.161 507.308 552.434 505.891H550.367C550.367 505.41 550.367 504.461 550.367 503.993C555.944 500.483 560.052 495.062 565.967 491.981C565.967 491.513 565.967 490.59 565.967 490.122H567.891C568.411 489.316 568.918 488.497 569.399 487.691L571.037 487.392C571.79 486.195 572.661 485.076 573.637 484.051C573.637 483.609 573.806 482.751 573.858 482.27H576.341C578.876 486.248 582.841 488.835 586.169 492.124C592.058 496.505 595.698 503.083 601.34 507.724C601.34 508.53 601.457 509.336 601.522 510.168L603.199 510.441C604.327 511.465 605.399 512.55 606.41 513.691C606.285 514.326 606.312 514.981 606.491 515.603C606.67 516.224 606.994 516.795 607.437 517.266C612.169 517.591 615.38 521.465 618.513 524.598C623.31 530.032 629.147 534.608 633.32 540.601C636.322 542.538 639.061 544.854 641.471 547.491C641.757 548.687 642.095 549.883 642.381 551.105L640.808 552.184C641.653 552.896 642.573 553.515 643.551 554.03C643.477 552.652 643.29 551.282 642.992 549.935L644.734 550.091C647.529 555.486 653.405 557.969 657.201 562.519C659.866 565.743 663.168 568.33 666.119 571.294C667.913 571.294 670.019 571.463 671.904 571.463C671.709 571.775 671.306 572.386 671.111 572.763L670.071 572.191C669.759 573.4 669.395 574.596 669.031 575.792C668.282 576.357 667.582 576.983 666.938 577.664C663.688 580.511 661.153 584.164 657.474 586.543C654.094 588.519 651.936 591.925 649.167 594.603C645.673 597.698 642.024 600.614 638.234 603.339C636.505 605.757 633.895 607.4 630.967 607.915C628.588 611.607 624.844 613.96 621.282 616.391C620.996 614.961 620.632 613.557 620.229 612.179C619.137 612.452 617.174 612.699 617.811 614.298C617.629 616.066 619.813 618.978 617.031 619.498C612.221 621.409 609.231 626.102 604.33 627.831C602.146 629.677 599.13 630.288 597.206 632.42C594.476 633.018 592.383 635.02 590.238 636.632C587.261 638.738 583.998 640.389 580.995 642.482C580.28 642.612 579.591 642.768 578.889 642.937C578.492 643.453 578.057 643.94 577.589 644.393C573.949 644.393 571.869 647.786 568.489 648.397C566.201 650.594 562.847 650.88 560.234 652.544C557.036 653.935 554.163 656.223 550.679 656.834C550.12 657.328 549.574 657.848 549.054 658.381C545.752 658.472 542.671 659.759 539.603 660.747C539.189 661.262 538.823 661.815 538.511 662.398L534.611 663.698C530.438 665.7 525.823 666.714 521.442 668.222C520.848 668.877 520.111 669.385 519.287 669.708C518.464 670.03 517.578 670.158 516.697 670.081C516.138 670.601 515.605 671.134 515.085 671.68C512.471 672.242 509.893 672.958 507.363 673.825C502.345 675.619 496.664 674.761 491.893 677.348C490.935 677.304 489.982 677.495 489.114 677.902C488.247 678.31 487.492 678.923 486.914 679.688C483.352 680.377 479.738 680.806 476.176 681.456C473.245 682.705 470.093 683.351 466.907 683.354L466.075 684.433C459.77 684.589 453.595 686.032 447.355 686.825C441.771 688.38 436.016 689.231 430.221 689.36C429.35 689.438 428.739 688.697 428.05 688.333L430.247 687.319C430.169 686.487 430.117 685.681 430.065 684.875C429.584 684.407 429.116 683.952 428.661 683.484C426.45 683.111 424.179 683.574 422.291 684.784C422.291 686.552 422.291 688.32 422.291 690.127C419.054 690.322 415.791 689.62 412.619 689.659C407.757 691.401 402.466 690.673 397.422 690.881C384.877 690.699 372.241 691.648 359.722 690.049C352.559 687.54 344.837 689.581 337.622 687.449C335.503 686.825 333.553 685.772 331.512 685.031C325.012 685.694 318.72 683.926 312.337 683.328C304.602 680.988 296.633 679.61 288.846 677.491C286.246 675.775 282.827 676.425 280.084 675.112C277.055 673.604 273.298 673.89 270.672 671.524L272.817 671.212L273.597 669.912C275.612 669.457 277.406 670.575 278.966 671.628C280.383 671.953 281.787 672.317 283.204 672.655L284.023 673.747C284.894 673.747 285.791 673.851 286.623 673.916C286.376 674.527 286.129 675.151 285.895 675.788H288.495L287.806 674.488C289.762 674.548 291.71 674.77 293.63 675.151C293.422 675.775 293.227 676.451 293.058 677.075C298.752 676.139 304.524 677.27 309.958 679.09C313.975 679.363 317.758 680.65 321.801 681.014L322.659 682.041C328.34 681.911 333.826 683.679 339.559 683.51L340.378 684.576C342.094 685.278 345.279 683.705 346.605 685.681C349.205 686.656 353.196 685.239 355.094 687.67L358.266 687.748L356.511 686.903C357.174 686.565 357.811 685.876 358.604 686.032C362.316 686.382 366.043 686.542 369.771 686.513C377.22 686.162 384.604 687.436 392.079 687.111L393.015 685.369C394.731 677.569 393.522 669.457 393.951 661.54C394.25 659.447 395.251 657.406 394.783 655.222C394.783 642.352 392.976 629.521 393.938 616.664C394.509 609.33 394.408 601.958 393.639 594.642C393.275 584.385 393.457 574.128 393.366 563.884C391.728 563.195 389.947 562.077 388.062 562.701C381.378 562.849 374.692 562.58 368.042 561.895L367.47 560.946C362.569 560.725 357.655 561.154 352.845 560.023C348.542 558.892 344.005 558.879 339.728 557.592C335.607 556.838 331.629 555.447 327.495 554.797C322.646 554.472 318.486 551.599 313.741 550.897C311.7 551.17 310.53 549.987 309.217 548.882L307.111 548.401C305.005 545.801 301.352 546.308 298.375 545.983L297.491 544.995C295.776 544.85 294.142 544.198 292.798 543.123L290.718 542.577C289.779 541.673 288.658 540.982 287.429 540.549C283.159 538.876 279.004 536.927 274.988 534.712C273.666 534.199 272.293 533.828 270.893 533.607C269.827 532.463 268.748 531.358 267.669 530.292C266.12 530.074 264.615 529.614 263.21 528.927L261.819 528.316C259.661 525.3 254.955 525.807 253.382 522.31C250.041 520.256 246.245 518.8 243.567 515.81C241.942 515.277 240.356 514.601 238.744 514.055C237.917 513.362 237.048 512.72 236.144 512.131C236.053 511.728 235.897 510.909 235.819 510.493L234.415 509.336C228.461 507.503 224.626 501.965 220.609 497.636C218.191 496.18 215.409 495.036 213.849 492.592C211.847 490.525 209.845 487.704 206.491 488.25C203.319 494.191 197.079 497.35 193.257 502.758C189.158 506.536 185.253 510.519 181.557 514.692C178.374 517.132 175.38 519.809 172.6 522.7C170.416 524.715 169.168 527.523 166.984 529.538C163.96 532.183 161.144 535.055 158.56 538.131C151.529 544.434 144.927 551.2 138.8 558.385C138.119 559.014 137.488 559.697 136.915 560.426C134.639 561.789 132.626 563.55 130.974 565.626C127.305 569 124.021 572.772 121.185 576.871C121.185 577.716 121.003 579.471 120.938 580.277C124.006 579.328 125.384 582.331 127.308 583.852C127.308 585.386 128.504 586.192 129.804 586.699C131.32 588.034 132.947 589.239 134.666 590.3L134.77 592.146H137.37C137.812 592.796 138.293 593.446 138.67 594.122C138.303 594.822 137.809 595.448 137.214 595.968C136.057 595.968 135.108 595.175 134.107 594.772C134.107 593.953 133.977 593.134 133.912 592.341C132.95 591.782 132.066 591.145 131.182 590.508C130.206 590.199 129.247 589.839 128.309 589.429C125.228 586.166 122.693 582.149 118.52 580.199C117.987 579.198 117.441 578.223 116.895 577.248L115.218 577.001C114.62 576.08 113.946 575.21 113.203 574.401C113.125 573.985 112.956 573.166 112.865 572.75L111.565 571.45L109.927 571.151C107.587 568.447 105.611 565.418 102.881 563.104C102.212 562.453 101.495 561.854 100.736 561.31C100.658 560.894 100.502 560.101 100.411 559.698C97.5266 558.404 95.0661 556.323 93.313 553.692C91.493 550.715 88.49 548.284 87.762 544.761C84.057 541.953 81.366 538.066 78.22 534.699C75.074 531.332 73.02 526.769 70.485 522.739C67.3726 518.06 64.0229 513.543 60.449 509.206C60.358 508.4 60.28 507.607 60.202 506.814C59.643 506.489 59.084 506.177 58.525 505.891C55.379 501.64 53.325 496.713 50.725 492.137C50.946 487.236 47.397 483.492 44.706 479.774C44.238 477.174 42.665 475.133 41.859 472.715C41.2774 471.224 40.1793 469.992 38.765 469.244L38.245 465.214C34.41 462.393 34.488 457.219 32.408 453.293C29.8227 448.271 27.5351 443.101 25.557 437.81C23.893 434.079 23.555 429.945 22.216 426.11C21.6265 425.782 21.1343 425.304 20.7895 424.724C20.4447 424.144 20.2596 423.483 20.253 422.808C20.253 418.232 16.808 414.787 16.249 410.367C15.105 406.467 14.637 402.281 13.09 398.459C11.361 392.492 11.075 386.187 8.87798 380.337C8.79998 375.722 6.35599 371.536 6.47299 366.921C6.61599 363.749 5.17299 360.811 5.25099 357.665C4.80899 348.786 2.40397 340.141 2.02697 331.275C1.66297 326.673 1.74098 322.071 1.32498 317.508C0.787472 312.359 0.822354 307.166 1.42898 302.025C1.61098 292.99 1.24699 283.929 2.39099 274.933C3.02799 267.809 2.68998 260.542 4.53598 253.574C5.36798 249.076 5.19899 244.474 5.90099 239.937L7.00598 239.105C7.22698 233.333 9.34598 227.886 9.67098 222.205C10.191 218.539 11.478 215.029 11.959 211.376C13.545 206.839 14.364 202.068 15.534 197.401C15.794 197.18 16.314 196.725 16.561 196.491C16.834 194.814 17.211 193.163 17.484 191.499L18.459 190.589C18.2426 189.26 18.3546 187.898 18.7851 186.623C19.2156 185.347 19.9516 184.196 20.929 183.27C22.138 171.57 28.404 161.17 32.408 150.263C34.3806 144.542 36.9974 139.064 40.208 133.935C41.1085 130.997 42.7466 128.338 44.966 126.213C45.07 125.433 45.161 124.653 45.265 123.886L46.916 122.313C46.6951 121.169 46.8024 119.985 47.2257 118.899C47.649 117.814 48.3709 116.87 49.308 116.177C50.985 114.877 51.245 112.68 51.778 110.795C52.311 108.91 53.494 107.727 54.443 106.271L56.12 105.335C56.12 104.503 56.211 103.684 56.25 102.865C57.758 100.798 60.41 99.42 60.436 96.534C61.8429 94.1153 63.5654 91.8945 65.558 89.93C67.04 84.652 70.758 80.518 74.242 76.384C74.502 78.62 75.542 81.194 73.852 83.131C72.201 86.94 69.107 89.774 66.949 93.271C66.468 93.622 65.987 93.999 65.519 94.363C65.1765 95.1065 64.7946 95.8312 64.375 96.534C63.582 99.875 60.865 102.241 59.37 105.257C57.875 108.273 56.068 110.717 54.534 113.525C52.883 114.591 52.597 116.593 52.103 118.335L51.232 119.323C50.712 122.82 47.969 125.42 46.773 128.683C43.874 133.207 42.951 138.732 39.571 142.983C39.493 143.386 39.311 144.283 39.233 144.634L38.245 145.531C36.464 153.253 32.174 160.143 29.418 167.527L28.521 168.515C27.624 172.844 26.532 177.303 24.062 181.06C23.698 182.945 23.321 184.752 23.087 186.689C22.294 186.481 21.501 186.26 20.695 186.13C20.0835 187.068 19.7707 188.17 19.798 189.289L21.956 189.393C21.956 190.225 21.878 191.057 21.826 191.902C21.254 192.396 20.695 192.903 20.136 193.423C19.109 203.628 14.832 213.157 13.428 223.323C13.23 223.954 12.8973 224.536 12.453 225.026C11.621 228.718 11.556 232.54 10.698 236.245C9.56699 241.302 8.34499 246.372 8.39699 251.598C8.27115 254.405 7.78174 257.185 6.94099 259.866C6.49899 266.067 6.04398 272.242 5.91398 278.469C3.91198 285.229 4.93899 292.431 4.88699 299.399L6.27798 300.699C17.562 300.959 28.859 300.491 40.143 300.699C44.2734 301.571 48.5131 301.803 52.714 301.388C68.548 301.713 84.395 300.439 100.242 301.167C114.685 302.298 129.167 300.829 143.636 301.31C166.724 299.49 189.981 301.622 213.082 299.685C218.542 299.438 223.976 300.205 229.449 300.244C274.195 300.062 381.549 300.335 390.376 299.906C390.506 299.633 390.753 299.074 390.87 298.801C398.423 298.801 405.898 300.296 413.477 299.945C426.126 299.698 438.827 300.257 451.45 299.074C468.467 299.243 485.536 298.19 502.54 299.451C507.74 299.191 513.356 300.218 518.335 298.151C518.335 292.08 517.49 286.061 517.334 280.016C516.177 279.613 516.177 278.352 515.943 277.416C515.085 272.892 514.253 268.316 513.811 263.805C512.212 261.036 510.262 258.371 509.911 255.095L508.949 254.146C508.219 252.122 507.645 250.044 507.233 247.932L506.375 246.905C505.465 244.617 504.178 242.498 503.164 240.262C502.674 239.958 502.251 239.556 501.922 239.082C501.594 238.608 501.366 238.072 501.253 237.506L499.68 235.868C499.537 235.127 499.381 234.399 499.251 233.684C494.415 228.861 492.491 221.776 487.369 217.252L484.613 216.849C482.351 211.519 476.904 208.802 473.017 204.85C470.014 201.366 465.217 200.144 462.305 196.595C460.025 194.465 457.222 192.976 454.18 192.279C451.281 192.032 449.539 189.523 447.368 187.989L445.002 187.729L444.066 186.767C441.241 185.553 438.34 184.524 435.382 183.686C433.432 181.281 429.961 182.23 427.309 181.294L426.386 180.267C422.486 180.488 419.275 177.836 415.401 178.161C412.801 177.615 409.603 178.525 407.783 176.497C402.462 175.75 397.086 175.463 391.715 175.639C391.789 174.098 391.976 172.564 392.274 171.05L389.83 169.75C389.648 165.585 389.791 161.412 390.259 157.27C390.714 140.487 389.505 123.665 390.753 106.908C390.753 94.896 390.584 82.884 390.597 70.872C391.052 63.072 388.842 55.272 390.363 47.472C389.271 46.341 387.841 44.625 385.891 46.081C375.218 46.744 364.571 47.901 353.885 48.252C350.258 48.486 346.865 49.916 343.251 50.072C339.351 49.955 335.932 52.412 332.032 52.672C328.578 53.2036 325.167 53.9856 321.827 55.012L320.956 56.078C316.809 56.741 312.87 58.158 308.788 59.107L307.839 60.017C303.653 60.628 300.039 63.033 295.905 63.917C294.605 65.373 292.317 65.217 290.705 65.958C288.04 66.92 285.713 68.688 282.905 69.364C280.967 70.5064 278.971 71.5478 276.925 72.484C273.987 73.42 270.074 73.329 268.462 76.501C265.082 77.931 262.261 80.791 258.426 80.947C258.101 81.467 257.776 82.013 257.477 82.559C255.709 83.859 253.993 85.159 252.277 86.459C251.194 86.7926 250.232 87.434 249.508 88.305C243.008 89.878 238.692 95.455 233.401 99.095L231.737 99.42C230.771 100.208 229.875 101.078 229.059 102.02C227.343 104.282 224.717 105.53 222.559 107.298V109.209H220.635C220.102 110.002 219.582 110.795 219.114 111.627L217.541 112.004C216.732 112.732 215.886 113.418 215.006 114.058C213.462 116.823 211.101 119.043 208.246 120.415C208.246 120.896 208.246 121.871 208.246 122.352C207.232 122.846 206.218 123.314 205.191 123.743C202.86 121.143 200.42 118.69 197.872 116.385L197.664 114.617C195.233 112.901 193.166 110.717 190.709 109.105L188.434 105.4L186.692 105.205C186.007 104.163 185.16 103.237 184.183 102.462C181.687 100.538 180.816 97.145 177.982 95.559C173.913 92.673 171.014 88.526 167.036 85.562C165.016 83.8345 163.286 81.7934 161.914 79.517C159.873 77.203 157.598 75.11 155.479 72.874L153.737 72.692C149.707 66.01 142.986 61.577 137.851 55.792C130.441 50.215 124.136 43.312 117.831 36.526C117.317 35.9661 116.675 35.5402 115.959 35.2852C115.243 35.0302 114.476 34.9538 113.724 35.0627C112.972 35.1716 112.257 35.4624 111.643 35.91C111.029 36.3576 110.534 36.9484 110.2 37.631C106.573 43.091 100.827 46.614 97.2 52.048C95.0999 55.3211 92.6071 58.3248 89.777 60.992C88.191 63.527 86.995 66.426 84.356 68.025L83.992 69.585C81.509 71.483 79.949 74.291 77.492 76.267C76.192 76.891 76.114 75.318 75.75 74.499C76.4251 73.4616 77.1586 72.4633 77.947 71.509C78.9301 70.7594 79.8677 69.952 80.755 69.091C81.0442 68.1168 81.3826 67.1579 81.769 66.218C84.759 63.267 86.774 59.432 89.452 56.156L91.22 55.948C91.844 55.272 92.52 54.648 93.131 53.933C93.235 53.556 93.443 52.802 93.534 52.412C95.432 50.995 96.472 48.785 98.175 47.212C100.6 44.8386 102.778 42.2252 104.675 39.412C105.116 37.8371 106.157 36.4977 107.574 35.681C111.045 33.081 113.229 29.181 116.674 26.451C119.417 23.695 122.862 21.81 125.657 19.119C125.436 16.818 127.997 16.597 129.492 15.661C131.481 14.192 132.638 11.839 134.692 10.383C139.892 6.48302 144.507 1.75099 150.071 -1.74601C153.074 -3.25401 154.543 -6.49101 157.286 -8.24602C160.029 -10.001 162.98 -12.211 165.957 -13.992C168.375 -16.969 172.249 -18.126 175.135 -20.492C177.241 -22.416 179.971 -23.43 182.064 -25.341C183.507 -26.901 185.652 -27.278 187.615 -27.746C188.629 -28.461 189.695 -29.124 190.761 -29.787C192.633 -32.387 195.597 -33.518 198.561 -34.454L200.134 -34.909C200.667 -35.442 201.213 -35.962 201.772 -36.482C205.048 -37.106 207.037 -40.265 210.196 -41.201C213.121 -42.02 215.318 -44.542 218.412 -44.88L219.959 -46.531L222.403 -46.752C222.611 -47.012 223.053 -47.532 223.274 -47.779C227.694 -48.806 231.373 -51.575 235.494 -53.33C239.394 -55.033 243.164 -57.126 247.194 -58.673C252.706 -59.973 257.776 -63.171 263.665 -62.651C263.925 -63.249 264.185 -63.847 264.458 -64.432C267.78 -65.285 271.024 -66.4156 274.156 -67.812C276.288 -68.956 278.81 -68.423 281.15 -68.748C282.45 -69.866 283.581 -71.218 285.583 -70.932C294.215 -73.363 302.899 -76.015 311.934 -76.132C314.898 -77.146 318.291 -77.237 321.034 -78.901C329.738 -80.6275 338.56 -81.6965 347.424 -82.099C347.424 -82.398 347.424 -83.009 347.424 -83.321C352.797 -83.1205 358.177 -83.469 363.479 -84.361M270.061 -64.497C270.133 -63.3567 270.457 -62.2466 271.01 -61.247C271.896 -61.5856 272.742 -62.0216 273.532 -62.547C273.532 -63.054 273.532 -64.055 273.532 -64.562L270.074 -64.432M383.2 -49.534C383.915 -48.546 384.5 -46.843 385.969 -47.025C386.394 -47.8495 386.717 -48.7225 386.931 -49.625C385.631 -49.625 384.435 -49.625 383.2 -49.521M326 -32.27C326 -31.399 326 -30.502 326 -29.605C327.105 -29.787 328.431 -29.605 329.224 -30.567L328.6 -34.467C327.716 -33.765 326.858 -33.024 326 -32.296M321.97 -32.296C321.403 -31.3584 320.966 -30.3482 320.67 -29.293C321.19 -28.786 321.684 -28.24 322.165 -27.681C321.567 -26.94 320.865 -26.251 320.267 -25.562C320.436 -25.003 320.618 -24.431 320.8 -23.859C321.684 -23.859 322.581 -23.859 323.478 -23.859C323.244 -24.938 322.958 -25.991 322.685 -27.044L325.285 -27.109C324.863 -28.8124 324.619 -30.5551 324.557 -32.309H321.957M173.016 -1.19999C174.758 -2.10999 176.708 -3.65698 175.46 -6.13998C173.822 -5.02198 171.027 -4.203 173.016 -1.19999ZM383.759 5.937C383.215 6.74391 382.778 7.61785 382.459 8.53699C383.467 9.07571 384.581 9.38638 385.722 9.44701L385.8 6.00202H383.798M318.343 10.422C318.044 11.891 319.643 12.489 320.839 12.268C321.387 11.479 321.698 10.5499 321.736 9.59C320.566 9.70699 319.201 9.42101 318.343 10.422ZM297.764 18.378C296.334 18.898 296.932 20.471 296.802 21.628C298.418 21.4955 299.989 21.0308 301.417 20.263C301.417 19.743 301.352 18.677 301.339 18.157L297.764 18.378ZM323.14 24.8C321.515 25.827 322.828 27.855 322.919 29.415L325.051 27.855C324.908 26.672 325.051 24.111 323.14 24.8ZM251.705 48.694C251.396 49.9782 251.17 51.2809 251.029 52.594C253.343 53.062 255.592 51.658 254.461 48.694H251.705ZM677.611 49.747C675.349 50.891 678.235 53.452 679.613 51.853C680.991 50.644 678.911 49.071 677.611 49.747ZM674.192 53.556C674.192 54.466 674.192 55.376 674.192 56.299C676.025 56.052 679.782 57.04 679.392 54.297C678.989 51.801 675.908 53.517 674.192 53.556ZM476.592 67.245C476.124 68.103 475.617 68.935 475.136 69.754C476.709 70.547 478.854 71.886 480.336 70.274C480.014 69.1661 479.578 68.0944 479.036 67.076L476.553 67.245M201.447 70.027C201.447 70.846 201.369 71.678 201.343 72.51H203.943C203.943 71.431 203.943 70.365 203.943 69.299C203.085 69.559 202.24 69.806 201.343 70.027M426.1 69.871C425.918 70.898 425.554 72.965 425.372 73.979C426.49 73.81 427.842 73.979 428.661 73.03C428.718 72.6486 428.694 72.2595 428.591 71.8879C428.488 71.5163 428.308 71.1705 428.063 70.8727C427.818 70.575 427.513 70.332 427.168 70.1595C426.823 69.9869 426.446 69.8887 426.061 69.871M201.304 75.695C201.465 77.0885 201.739 78.4667 202.123 79.816C203.241 79.582 205.152 79.296 204.723 77.697C205.113 75.656 202.721 75.617 201.33 75.695M664.637 75.383C663.896 75.877 663.155 76.358 662.401 76.787C662.553 77.6231 662.825 78.433 663.207 79.192C664.507 78.971 665.339 77.892 666.34 77.125C666.34 76.631 666.34 75.656 666.34 75.175L664.637 75.383ZM439.1 79.114C438.996 82.065 439.698 88.513 444.365 86.979C444.365 86.056 444.365 85.133 444.456 84.236C443.156 83.3 441.856 82.39 440.621 81.506C440.556 80.687 440.504 79.881 440.452 79.062H439.152M648.166 80.362C648.764 80.7298 649.385 81.0598 650.025 81.35C650.025 80.128 650.025 78.906 650.025 77.697C649.31 78.503 648.088 79.127 648.192 80.297M431.56 80.934C430.546 81.766 430.845 83.131 430.728 84.288C432.042 84.1263 433.344 83.8832 434.628 83.56C434.628 83.066 434.628 82.065 434.628 81.571C433.621 81.2705 432.59 81.0574 431.547 80.934M212.12 84.678C211.535 85.6786 211.238 86.8213 211.262 87.98H213.927C214.148 87.33 214.382 86.68 214.642 86.043C213.86 85.5042 213.013 85.0673 212.12 84.743M433.354 86.381C433.185 87.928 432.86 91.217 435.226 90.814C437.072 89.631 434.901 86.719 435.941 85.367C435.017 85.5329 434.134 85.8773 433.341 86.381M639.833 86.381L638.455 87.889C638.455 88.708 638.364 89.514 638.351 90.333L641.809 90.255C642.602 87.811 641.133 87.343 639.833 86.355M483.157 91.828C483.157 92.946 483.157 94.051 483.248 95.182L485.744 94.376C485.744 93.531 485.744 92.686 485.744 91.841H483.144M506.089 93.869C505.99 94.3021 506.012 94.7541 506.151 95.1758C506.291 95.5975 506.544 95.9728 506.882 96.261C507.844 96.261 508.559 95.442 509.378 95.039C509.378 94.493 509.378 93.427 509.3 92.881C508.182 93.063 506.895 92.881 506.089 93.869ZM613.495 97.769C614.288 97.9368 615.106 97.9462 615.902 97.7967C616.699 97.6473 617.458 97.3418 618.136 96.898C618.053 95.57 617.795 94.2587 617.369 92.998C614.769 93.167 611.558 93.895 613.469 97.756M189.032 96.716C189.37 97.847 189.721 98.978 190.02 100.135C191.58 99.641 191.931 98.263 191.84 96.768C190.904 96.768 189.968 96.768 189.032 96.768M534.936 101.812C535.941 102.399 536.875 103.102 537.718 103.905L540.318 103.996C540.256 102.257 539.637 100.584 538.55 99.225C538.173 98.367 537.809 97.522 537.419 96.69C536.681 97.3292 536.082 98.1142 535.662 98.9956C535.241 99.877 535.007 100.836 534.975 101.812M447.134 111.133C447.129 112.293 447.434 113.433 448.018 114.435C448.941 114.069 449.814 113.588 450.618 113.005C450.603 111.842 450.294 110.702 449.721 109.69C448.792 110.049 447.917 110.535 447.121 111.133M520.532 121.091C521.403 121.325 522.274 121.624 523.132 121.78C524.224 120.909 524.146 118.569 522.469 118.556C520.857 117.971 520.675 120.012 520.467 121.091M496.976 119.96C496.976 120.87 497.041 121.793 497.08 122.729C498.38 122.534 499.68 122.248 500.902 121.936C500.902 121.442 500.902 120.467 500.902 119.973H496.937M618.786 121.39C619.28 123.379 620.008 125.29 620.411 127.305C622.374 125.485 621.854 122.872 621.36 120.506C620.45 120.654 619.571 120.952 618.76 121.39M418.391 124.172C418.357 126.521 418.584 128.867 419.067 131.166C419.522 130.846 419.883 130.409 420.112 129.901C420.341 129.393 420.429 128.833 420.367 128.28C422.044 125.381 419.873 125.004 418.352 124.172M720.862 125.992C720.266 127.242 719.796 128.549 719.458 129.892H721.486C722.097 129.203 722.786 128.592 723.41 127.89C723.41 127.435 723.527 126.59 723.553 126.083H720.862M459.666 132.583C459.666 133.532 459.666 134.468 459.666 135.417C461.248 135.626 462.856 135.326 464.255 134.559C464.801 132.154 460.693 132.466 459.653 132.583M540.253 132.063C539.629 133.467 537.835 135.534 539.616 136.782C542.216 137.276 541.891 133.207 540.253 132.063ZM657.383 136.6H661.036C660.828 135.508 660.893 134.273 660.061 133.441C658.306 133.142 658.124 135.456 657.383 136.561M479.53 139.2C479.476 140.066 479.476 140.934 479.53 141.8C480.482 141.816 481.407 141.483 482.13 140.864C482.13 140.006 482.13 139.148 482.13 138.264C481.174 138.238 480.244 138.577 479.53 139.213M696.773 137.211C697.02 138.81 697.319 140.396 697.696 141.995C699.178 140.903 698.853 138.862 698.996 137.263H696.786M540.357 139.447C540.357 139.876 540.565 140.747 540.63 141.137C542.346 142.905 540.903 147.208 544.322 146.701C544.322 145.583 544.179 143.334 544.127 142.203C543.464 141.319 542.827 140.396 542.268 139.486H540.357M726.257 138.576C724.047 143.243 732.094 143.191 729.832 138.576H726.257ZM524.9 141.15L524.64 144.166C525.732 143.984 527.149 144.361 527.812 143.191C527.877 142.411 527.942 141.618 527.968 140.851C526.876 140.734 525.043 139.265 524.9 141.15ZM453.244 141.15C453.244 141.631 453.244 142.619 453.244 143.113H455.207C455.207 142.619 455.207 141.644 455.207 141.15H453.244ZM596.738 146.467C597.653 146.275 598.531 145.937 599.338 145.466C599.274 144.332 599.055 143.213 598.688 142.138C597.388 143.204 594.866 143.646 596.712 146.467M637.22 142.879C637.253 143.335 637.405 143.774 637.661 144.152C637.918 144.53 638.269 144.834 638.681 145.033C639.092 145.232 639.548 145.319 640.004 145.285C640.46 145.252 640.898 145.099 641.276 144.842C640.769 143.867 640.249 142.892 639.742 141.943C638.862 142.137 638.014 142.452 637.22 142.879ZM724.97 150.146C726.049 150.64 727.167 151.134 728.311 151.55C728.038 149.678 727.947 147.884 727.609 146.064C725.698 146.064 723.566 147.637 725.009 150.146M696.266 147.039C696.266 148.339 696.266 149.639 696.266 150.939H698.242C698.242 149.639 698.242 148.339 698.242 147.039H696.279M529.489 160.585C528.813 161.794 530.789 162.977 531.556 161.885C532.466 161.105 531.478 159.779 531.296 158.856C530.65 159.376 530.046 159.945 529.489 160.559M721.265 159.103V160.208C722.126 160.349 723.004 160.349 723.865 160.208V159.116C723.005 158.96 722.125 158.96 721.265 159.116M714.7 163.822L716.858 164.758C717.092 163.147 717.235 161.523 717.287 159.896C715.48 160.013 713.244 161.313 714.687 163.796M533.493 168.996C533.207 169.646 532.921 170.309 532.635 170.985C533.935 171.31 535.56 171.986 536.535 170.751C536.366 169.88 536.08 169.035 535.846 168.151C535.04 168.398 534.234 168.671 533.454 168.957M442.818 172.519C442.818 174.066 441.518 176.042 443.104 177.147C444.781 177.472 445.483 175.366 445.704 174.053L442.805 172.519M497.314 174.924C497.314 175.795 497.314 176.679 497.314 177.524C498.835 178.824 502.709 179.864 502.605 176.926C501.81 176.51 500.973 176.179 500.109 175.938L499.212 174.963L497.34 174.872M540.994 185.272C541.34 185.881 541.718 186.471 542.125 187.04C544.452 187.586 546.116 185.922 547.949 184.96C547.727 184.069 547.427 183.199 547.052 182.36C544.961 183.154 542.936 184.11 540.994 185.22M744.223 194.398C745.452 195.245 746.758 195.977 748.123 196.582C748.123 196.049 748.123 195.009 748.123 194.476L747.2 193.8C746.934 192.949 746.595 192.122 746.186 191.33C744.275 190.94 744.301 193.293 744.236 194.567M524.263 193.15C524.263 194.307 524.341 195.477 524.406 196.634C526.421 196.634 527.331 195.074 527.006 193.241L524.25 193.15M701.778 197.427C701.778 198.987 703.741 198.896 704.872 198.727C705.899 197.947 705.639 196.582 705.821 195.451C704.755 195.126 701.05 195.321 701.778 197.401M674.166 196.361C674.043 196.759 674.017 197.182 674.091 197.592C674.165 198.003 674.337 198.39 674.592 198.72C674.847 199.05 675.177 199.314 675.556 199.489C675.934 199.665 676.349 199.747 676.766 199.728C676.766 198.558 676.766 197.388 676.883 196.244C675.947 196.244 675.024 196.283 674.114 196.361M758.731 199.078C758.731 199.988 758.731 200.898 758.731 201.821C762.137 203.563 762.241 200.287 762.631 198.415C761.281 198.53 759.942 198.752 758.627 199.078M593.072 200.443C591.382 203.433 593.904 205.032 596.192 204.668C596.192 204.161 596.192 203.134 596.192 202.627C595.199 201.841 594.161 201.112 593.085 200.443M490.138 202.692C489.813 203.992 490.58 205.461 492.062 205.149C493.687 205.149 493.362 202.926 493.453 201.808C492.296 201.938 490.918 201.626 490.138 202.692ZM671.514 202.601V203.758C672.616 203.94 673.74 203.94 674.842 203.758V202.601C673.741 202.406 672.615 202.406 671.514 202.601ZM525.017 203.641C524.081 204.447 524.25 205.747 524.094 206.865H526.876C527.045 206.033 527.279 205.227 527.396 204.395C527.102 204.069 526.727 203.828 526.309 203.695C525.891 203.563 525.445 203.544 525.017 203.641ZM507.012 204.486C507.158 205.408 507.485 206.291 507.974 207.086C508.823 206.963 509.662 206.776 510.483 206.527C510.21 205.838 509.963 205.149 509.716 204.473C508.806 204.473 507.896 204.473 507.012 204.538M574.014 210.219C576.289 208.789 575.002 205.981 574.625 203.836C572.35 205.279 573.572 208.048 574.014 210.219ZM744.314 205.019C744.036 205.869 743.819 206.738 743.664 207.619C744.873 209.322 746.94 207.359 746.914 205.825C746.102 205.391 745.224 205.096 744.314 204.954M661.413 206.137C660.656 207.243 659.826 208.299 658.93 209.296L660.594 209.621L658.8 211.545C658.8 212.429 658.8 213.326 658.8 214.223C660.336 213.774 661.847 213.24 663.324 212.624C663.194 211.558 663.038 210.492 662.856 209.452C663.311 208.022 663.402 206.527 661.634 206.163M517.334 208.152V211.74C518.764 212.052 522.105 211.155 521.806 209.062C521.179 208.566 520.443 208.225 519.659 208.067C518.876 207.909 518.066 207.938 517.295 208.152M630.005 209.621C629.503 210.408 629.18 211.296 629.056 212.221H631.799C632.267 211.532 632.761 210.921 633.255 210.206C632.213 209.824 631.115 209.618 630.005 209.595M534.923 214.08C534.637 214.661 534.377 215.246 534.143 215.835C533.467 216.147 532.843 216.472 532.141 216.81C532.596 218.513 533.116 221.113 536.041 219.267C537.991 218.318 535.937 215.367 536.977 214.067H534.936M511.9 224.129C512.147 225.208 511.9 227.288 513.447 227.327C515.345 227.769 515.358 225.377 515.514 224.116H511.9M633.918 228.51C633.868 229.128 633.946 229.749 634.148 230.335C634.35 230.921 634.671 231.459 635.091 231.915C635.511 232.37 636.022 232.734 636.589 232.982C637.157 233.231 637.77 233.359 638.39 233.359C638.39 232.8 638.52 231.695 638.559 231.149C637.188 230 635.614 229.118 633.918 228.549M732.9 234.49C732.9 235.66 732.9 237.987 732.9 239.144L734.876 240.652C735.435 238.979 735.647 237.21 735.5 235.452C734.747 234.876 733.845 234.529 732.9 234.451M759.68 235.153C759.797 237.981 760.058 240.801 760.46 243.603C761.741 243.94 763.044 244.183 764.36 244.331C765.133 246.199 765.653 248.162 765.907 250.168C767.329 250.376 768.775 250.376 770.197 250.168C770.431 249.141 770.678 248.114 770.86 247.087C770.366 246.489 769.911 245.865 769.482 245.241C770.446 244.941 771.388 244.576 772.303 244.149C771.762 242.798 771.007 241.542 770.067 240.431C768.533 240.002 768.273 242.004 767.467 242.901L765.595 242.992C764.295 240.288 762.514 237.571 762.735 234.425C761.682 234.633 760.655 234.919 759.641 235.192M525.004 244.903C524.809 246.004 524.809 247.13 525.004 248.231H526.2C526.382 247.134 526.382 246.014 526.2 244.916H525.043M529.411 245.696C528.02 246.307 528.917 247.815 529.073 248.894C529.814 248.582 530.568 248.27 531.348 247.984C530.945 247.035 530.919 244.903 529.411 245.696ZM533.038 246.853C533.306 247.54 533.61 248.212 533.948 248.868C534.885 248.716 535.805 248.468 536.691 248.127C535.872 246.827 534.39 246.827 533.038 246.827M732.341 249.791C731.688 250.474 731.199 251.296 730.911 252.196C732.809 253.21 734.616 254.679 736.813 255.004C736.476 253.987 736.361 252.91 736.475 251.845C736.59 250.78 736.931 249.751 737.476 248.829C735.695 248.309 734.057 249.466 732.276 249.791M614.834 251.091C615.263 251.936 615.77 252.768 616.29 253.6L619.098 253.522C619.098 251.559 617.226 249.388 614.834 251.091ZM629.225 251.663C629.225 253.678 630.772 254.588 632.618 254.263C632.618 253.34 632.618 252.417 632.709 251.507C631.539 251.507 630.369 251.585 629.225 251.65M725.425 255.069C725.823 255.554 726.345 255.922 726.936 256.135C727.526 256.348 728.163 256.397 728.779 256.278C729.281 255.487 729.617 254.603 729.767 253.678C728.311 254.094 726.842 254.484 725.425 254.978M771.003 256.564C770.314 258.085 769.625 259.606 768.91 261.114L765.01 262.011C764.347 264.169 766.856 265.17 768.819 264.442C769.209 263.961 769.625 263.506 770.119 263.051C770.375 266.105 771.341 269.056 772.94 271.67L775.085 271.566C775.397 268.784 772.485 267.471 772.667 264.728C772.29 263.337 771.965 261.946 771.588 260.581L773.616 260.464C773.891 259.453 774.091 258.423 774.214 257.383C773.408 256.473 772.16 256.668 771.094 256.564M692.314 258.28C692.221 258.658 692.227 259.053 692.333 259.428C692.438 259.802 692.638 260.143 692.915 260.417C693.191 260.69 693.534 260.888 693.909 260.989C694.285 261.091 694.68 261.094 695.057 260.997C695.15 260.619 695.144 260.224 695.038 259.849C694.933 259.475 694.733 259.134 694.456 258.86C694.18 258.587 693.837 258.389 693.462 258.288C693.086 258.186 692.691 258.183 692.314 258.28ZM762.514 265.807V267.887C764.36 268.16 766.141 267.211 765.777 265.118C764.646 265.287 763.554 265.547 762.462 265.807M649.232 268.264C649.232 269.187 649.232 270.11 649.232 271.046C650.051 271.046 650.896 270.955 651.741 270.929C651.988 270.24 652.248 269.629 652.547 268.914C651.455 268.641 650.376 268.433 649.284 268.264M607.996 271.033L608.724 275.219C610.57 275.492 610.83 273.386 610.609 272.034C609.831 271.504 608.941 271.161 608.009 271.033M767.545 273.542C768.78 273.542 770.041 273.542 771.302 273.542C770.756 272.697 770.444 271.254 769.144 271.696C768.13 271.566 768.052 272.996 767.545 273.555M626.274 275.687C626.274 276.207 626.404 277.286 626.456 277.806C628.341 277.26 630.46 276.623 631.149 274.543C628.991 273.711 627.86 274.972 626.274 275.687ZM521.962 283.5L524.211 283.708C524.107 282.707 524.016 281.732 523.925 280.757C523.367 280.974 522.883 281.349 522.535 281.836C522.186 282.323 521.987 282.901 521.962 283.5ZM625.728 281.628L623.583 285.814C625.135 286.119 626.708 286.306 628.289 286.373C628.874 283.981 628.432 281.524 625.689 281.628M629.589 290.26V292.223H632.189V290.26H629.589ZM274.689 301.96C274.689 302.87 274.689 303.78 274.689 304.716C276.691 304.599 278.914 304.547 280.539 303.169C280.539 299.971 276.704 301.791 274.624 301.96M422.2 302.831L421.914 305.886L424.982 305.574C428.076 304.469 423.266 299.698 422.2 302.831ZM488.383 302.831C487.278 303.559 487.538 304.937 487.382 306.081C488.222 306.837 489.313 307.256 490.444 307.256C491.574 307.256 492.665 306.837 493.505 306.081C493.323 304.963 493.505 303.65 492.543 302.87H488.5M290.536 311.775C290.536 312.633 290.536 313.504 290.536 314.375C291.667 315.207 292.681 316.624 294.28 316.377C294.755 315.633 295.061 314.795 295.177 313.92C294.176 313.296 293.188 312.62 292.252 311.97L290.497 311.775M323.946 312.425C323.802 313.003 323.835 313.61 324.043 314.169C324.25 314.727 324.622 315.209 325.108 315.552C325.595 315.895 326.174 316.083 326.769 316.091C327.365 316.099 327.948 315.927 328.444 315.597C328.444 315.103 328.444 314.102 328.444 313.595C327.222 312.607 325.324 310.449 323.959 312.425M97.46 313.582C95.783 314.531 97.187 316.338 97.941 317.482L100.073 317.417C100.515 315.623 99.696 312.659 97.473 313.634M211.444 314.388C211.041 315.064 210.599 315.688 210.144 316.377C210.079 317.183 210.027 318.002 209.975 318.834L211.73 318.639C212.308 317.711 212.974 316.84 213.719 316.039C213.719 315.584 213.849 314.739 213.888 314.232C213.069 314.232 212.25 314.323 211.444 314.401M506.7 313.894C505.705 314.673 504.751 315.501 503.84 316.377C504.984 317.508 506.778 321.2 508.507 318.873C508.376 317.629 508.159 316.395 507.857 315.181L509.222 315.077V313.777C508.39 313.777 507.558 313.855 506.752 313.92M445.145 317.95C445.398 318.211 445.701 318.419 446.036 318.56C446.371 318.702 446.731 318.775 447.095 318.775C447.459 318.775 447.819 318.702 448.154 318.56C448.489 318.419 448.792 318.211 449.045 317.95C448.863 317.027 448.538 316.156 448.291 315.285C446.991 315.428 444.846 316.221 445.184 317.885M226.875 317.3C225.575 319.705 227.655 321.2 229.54 321.33C229.54 320.303 229.618 318.236 229.631 317.209C228.708 317.209 227.785 317.209 226.875 317.3ZM310.868 320.004C310.379 320.67 309.923 321.36 309.503 322.071C310.686 325.464 316.445 324.541 316.224 320.771C314.483 320.268 312.68 320.01 310.868 320.004ZM73.306 325.386C71.122 326.452 70.706 331.392 73.722 331.184C74.5599 329.823 75.0094 328.258 75.022 326.66C75.0369 326.442 74.9963 326.223 74.9042 326.025C74.8121 325.826 74.6714 325.654 74.4951 325.524C74.3188 325.395 74.1126 325.312 73.8956 325.283C73.6787 325.254 73.458 325.281 73.254 325.36M383.044 326.296C380.314 328.064 384.903 330.118 386.086 328.025C386.58 326.231 384.292 325.893 383.044 326.296ZM228.136 329.065C227.018 331.964 229.358 333.316 231.542 332.965C231.542 331.951 231.542 329.936 231.542 328.922L228.097 329.013M319.864 333.108C320.54 334.408 319.435 338.568 321.853 338.308C322.607 336.657 323.12 334.905 323.374 333.108H319.864ZM82.601 337.84C83.7777 338.542 85.1318 338.889 86.501 338.841C86.917 337.775 88.009 337.541 89.01 337.255C88.698 336.696 88.373 336.15 88.022 335.63C86.02 335.63 84.408 337.086 82.653 337.84M505.4 333.381C504.438 334.512 503.762 335.786 504.971 337.034C505.465 339.049 507.337 339.634 509.17 339.998C509.417 339.322 509.664 338.698 509.937 338.009C509.634 337.186 509.361 336.367 509.118 335.552C507.942 334.725 506.698 333.998 505.4 333.381ZM237.717 335.682C237.262 336.384 236.781 337.073 236.287 337.736C236.287 338.776 236.014 340.063 237.08 340.739C237.818 340.83 238.565 340.83 239.303 340.739C241.227 339.764 239.147 336.748 240.148 335.539L237.717 335.708M359.345 337.008C359.02 338.308 359.774 339.79 361.256 339.465C362.894 339.465 362.556 337.242 362.66 336.124C361.516 336.254 360.06 335.955 359.345 337.008ZM447.862 336.319C447.25 337.278 446.963 338.408 447.043 339.543C448.284 340.55 449.587 341.479 450.943 342.325C450.943 343.183 451.047 344.054 451.112 344.925L454.037 344.6C455.857 344.145 454.635 342.208 453.881 341.311L453.517 339.725C451.619 338.594 450.059 336.748 447.836 336.306M486.446 342.715C486.446 343.534 486.329 344.353 486.277 345.185C484.86 346.706 483.677 348.5 481.766 349.475C481.636 351.386 483.209 352.244 484.938 351.906C485.195 350.94 485.508 349.989 485.874 349.059C486.701 349.914 487.483 350.812 488.214 351.75C488.678 350.912 489.194 350.104 489.761 349.332C491.061 349.215 493.427 349.241 492.959 347.356C491.074 345.887 486.81 346.693 488.253 342.715H486.446ZM470.3 343.69C469.221 344.262 467.05 344.184 466.868 345.523C464.749 349.254 470.196 350.983 472.068 348.526C472.068 346.784 472.835 342.871 470.326 343.69M379.222 351.646C380.171 353.323 381.978 351.919 383.122 351.165C383.122 350.632 383.122 349.579 383.057 349.046C381.263 348.5 378.286 349.462 379.274 351.646M251.445 355.065C251.731 355.676 252.043 356.365 252.342 356.937C253.369 357.431 254.396 357.977 255.475 358.432C255.254 356.986 254.779 355.591 254.071 354.311C253.174 354.532 252.303 354.779 251.471 355.065M238.692 356.599C237.288 357.665 235.455 357.782 233.908 358.549C234.142 359.849 234.506 361.149 234.779 362.579C235.42 362.238 235.982 361.768 236.43 361.197C236.878 360.626 237.201 359.967 237.379 359.264C238.543 359.557 239.74 359.701 240.941 359.693C241.838 359.186 241.851 358.198 241.734 357.301C241.019 356.287 239.784 356.612 238.744 356.599M249.807 358.406C248.858 359.199 249.014 360.486 248.845 361.604C248.052 361.604 247.272 361.708 246.492 361.786C246.232 362.41 245.985 363.086 245.738 363.671C246.856 364.672 248.117 365.283 249.222 363.892L250.795 363.463C251.64 362.163 253.239 360.954 252.862 359.212C252.186 358.146 250.873 358.341 249.807 358.406ZM460.602 357.106C460.602 358.042 460.498 358.991 460.459 359.953L463.306 359.784C463.329 359.424 463.275 359.063 463.147 358.726C463.019 358.389 462.82 358.083 462.564 357.829C462.308 357.575 462 357.379 461.661 357.255C461.323 357.13 460.962 357.079 460.602 357.106ZM485.861 357.899C485.85 358.257 485.913 358.613 486.046 358.946C486.179 359.279 486.379 359.58 486.635 359.831C486.89 360.083 487.194 360.279 487.528 360.407C487.863 360.535 488.22 360.593 488.578 360.577C488.578 359.615 488.656 358.666 488.721 357.73C487.759 357.73 486.81 357.834 485.861 357.899ZM354.561 359.875C352.975 360.694 353.755 363.619 355.666 363.073C358.162 362.839 356.901 358.705 354.561 359.875ZM164.657 362.28C163.991 363.433 163.496 364.677 163.188 365.972C163.695 366.362 164.995 367.272 165.333 366.297C166.074 364.997 167.335 361.773 164.657 362.28ZM479.4 361.903C479.248 362.798 479.285 363.715 479.509 364.595C479.733 365.475 480.138 366.298 480.7 367.012L483.3 366.934C483.3 366.479 483.404 365.634 483.443 365.101C483.846 364.672 484.262 364.256 484.743 363.801L486.875 363.411C486.528 362.778 486.048 362.227 485.468 361.798C484.887 361.368 484.221 361.069 483.514 360.922C482.807 360.775 482.077 360.783 481.373 360.946C480.67 361.108 480.01 361.422 479.439 361.864M208.519 366.57C206.634 367.181 207.947 369.625 209.585 369.17C210.521 369.651 214.213 369.313 213.485 367.285C212.419 365.725 209.845 366.921 208.545 366.622M205.659 375.722C205.282 377.828 207.115 378.725 208.961 378.465C208.961 377.503 208.961 376.541 208.961 375.579C207.876 375.509 206.786 375.557 205.711 375.722M440.842 375.839C440.374 377.477 442.363 377.711 443.533 377.815C443.715 376.683 443.715 375.528 443.533 374.396C442.61 374.565 440.803 374.526 440.868 375.839M159.236 377.347C159.379 378.439 159.093 380.584 160.679 380.584C162.889 380.987 163.175 377.776 161.823 376.684C160.943 376.857 160.075 377.083 159.223 377.36M463.865 376.97C463.566 378.478 463.332 379.999 463.137 381.546H465.737L466.53 380.246C468.025 380.506 469.507 380.805 471.028 380.935C470.833 379.895 471.483 378.335 470.105 377.958C467.998 377.77 465.905 377.448 463.839 376.996M389.908 380.181C390.036 380.989 390.214 381.788 390.441 382.573C391.052 382.352 391.741 382.131 392.313 381.936C392.144 383.392 392.014 384.848 391.936 386.33C393.145 387.799 394.822 389.359 396.889 389.151C397.838 388.384 397.604 387.11 397.708 386.044C396.967 385.394 396.239 384.744 395.55 384.068L397.188 383.808C398.41 379.908 391.988 376.762 389.908 380.181ZM125.293 381.286V384.9C127.373 385.277 128.673 384.757 129.193 383.353C129.856 381.338 126.19 381.078 125.293 381.286ZM345.461 381.728C344.993 383.366 344.33 384.926 343.706 386.512C342.946 387.835 342.606 389.359 342.731 390.88L344.46 390.633C346.132 387.389 347.064 383.815 347.19 380.168C346.592 380.675 346.02 381.195 345.461 381.728ZM473.537 382.183C474.137 382.942 474.784 383.663 475.474 384.341C476.423 382.885 477.502 381.208 476.774 379.323C475.474 379.982 474.367 380.968 473.563 382.183M406.834 382.066C406.613 383.249 407.237 384.848 408.706 384.536C409.694 383.652 409.382 382.287 409.512 381.13C408.544 381.157 407.608 381.484 406.834 382.066ZM226.524 385.316L229.488 385.55C229.423 384.991 229.319 383.886 229.267 383.314C228.665 383.346 228.085 383.552 227.598 383.907C227.111 384.263 226.738 384.752 226.524 385.316ZM424.709 389.71C423.305 390.672 423.656 394.104 425.801 393.545C427.192 392.57 426.841 389.138 424.709 389.71ZM176.409 394.845C176.591 395.859 176.955 397.874 177.15 398.888C178.034 398.68 178.892 398.381 179.75 398.121C179.75 397.328 179.646 396.548 179.568 395.781C178.905 394.611 177.488 395.001 176.383 394.845M340.014 395.352C340.248 396.951 340.56 398.55 340.924 400.136C342.38 399.057 342.224 396.938 342.224 395.417H340.014M254.214 397.198C254.214 399.265 255.93 401.228 258.491 399.798C258.491 397.796 256.671 395.625 254.214 397.198ZM124.097 398.498C123.479 399.112 123.084 399.916 122.975 400.78C122.867 401.645 123.051 402.521 123.499 403.269C125.514 403.412 126.45 401.8 126.099 399.98L124.123 398.498M249.157 397.887L249.274 400.409C249.716 400.825 250.158 401.254 250.574 401.709L252.433 401.8L252.316 399.278L251.016 397.978L249.144 397.874M436.344 403.542C436.414 404.651 436.744 405.729 437.306 406.688C439.035 406.272 440.686 405.609 442.428 405.206C442.233 403.672 443.013 400.89 441.024 400.76C439.035 400.63 437.865 402.619 436.344 403.542ZM392.651 403.789C392.339 405.258 393.951 405.869 395.134 405.635C395.682 404.846 395.993 403.917 396.031 402.957C394.874 403.074 393.431 402.788 392.651 403.789ZM246.596 405.089C245.976 406.073 245.595 407.189 245.482 408.347C245.369 409.504 245.528 410.672 245.946 411.758C246.596 411.251 247.246 410.744 247.909 410.25L248.013 408.43L249.209 407.663C249.209 406.792 249.209 405.947 249.209 405.063C248.312 405.063 247.428 405.063 246.544 405.063M210.144 407.273C207.921 408.742 209.962 413.214 213.03 411.095C215.253 409.639 213.186 405.128 210.144 407.273ZM58.759 414.644C57.966 416.035 58.46 417.712 58.629 419.272C59.305 418.778 59.929 418.271 60.644 417.79V413.357L61.944 412.525C61.736 411.511 61.346 409.457 61.138 408.443C59.487 410.094 59.838 412.655 58.707 414.644M280.5 411.134C281.292 411.629 282.177 411.957 283.1 412.096C283.664 411.029 284.101 409.899 284.4 408.729C282.762 406.818 279.915 409.002 280.5 411.134ZM434.953 418.934L438.437 419.051C438.385 418.115 438.346 417.192 438.32 416.282C436.461 415.983 434.875 416.919 434.953 418.882M193.647 418.05C193.751 419.662 193.881 421.287 194.076 422.925L196.26 422.795C196.078 420.91 195.623 418.778 193.66 418.05M188.356 419.662C187.409 421.536 186.722 423.53 186.315 425.59C187.615 424.862 188.915 424.121 190.215 423.458C190.215 422.457 190.332 418.986 188.304 419.662M386.502 422.6C386.883 423.936 387.37 425.241 387.958 426.5H390.753C391.273 423.137 389.856 421.863 386.502 422.678M222.286 431.83C222.322 432.801 222.618 433.744 223.144 434.56C223.401 434.59 223.661 434.561 223.906 434.475C224.15 434.389 224.371 434.248 224.553 434.064C224.734 433.88 224.872 433.657 224.954 433.412C225.037 433.166 225.062 432.906 225.029 432.649C224.209 432.125 223.259 431.841 222.286 431.83ZM156.402 437.03C156.429 438.328 156.643 439.615 157.039 440.852C157.937 440.742 158.799 440.431 159.561 439.942C160.172 437.862 158.989 436.77 158.066 435.34C157.482 435.874 156.927 436.438 156.402 437.03ZM386.047 440.059C386.486 441.213 386.999 442.337 387.581 443.426C389.167 443.712 389.44 441.476 389.323 440.319C388.647 438.928 387.139 439.851 386.047 440.059ZM232.244 445.714C232.92 445.428 233.544 445.129 234.259 444.791C234.118 443.851 233.869 442.931 233.518 442.048C232.218 442.867 232.218 444.336 232.218 445.714M278.043 442.724C276.626 444.713 275.274 446.858 276.327 449.536C278.446 447.976 280.474 445.636 280.136 442.776H278.043M387.971 445.805C387.022 445.545 385.462 445.441 385.514 446.845C385.098 448.34 386.736 448.743 387.867 448.496C388.479 449.127 389.14 449.71 389.843 450.238C389.973 451.057 390.103 451.876 390.233 452.721C391.273 452.474 392.3 452.188 393.34 451.915C393.34 451.499 393.34 450.615 393.275 450.251C390.896 450.147 392.872 446.351 391.975 445.441C391.361 444.975 390.723 444.541 390.064 444.141C389.318 444.621 388.626 445.179 387.997 445.805M45.109 447.105C45.031 448.275 44.979 449.471 44.927 450.667L47.059 450.524C47.2146 449.814 47.1013 449.071 46.7411 448.44C46.381 447.808 45.7994 447.333 45.109 447.105ZM301.729 445.805C301.729 446.767 301.729 447.742 301.729 448.717C302.834 448.522 304.095 448.626 304.953 447.768C305.421 445.87 302.938 445.974 301.716 445.805M243.58 449.705C241.097 451.005 241.695 455.594 244.607 455.438C246.284 454.021 245.192 451.421 244.607 449.614L243.567 449.705M377.623 450.16C377.623 451.252 377.623 452.357 377.623 453.475L379.547 453.397C379.807 452.344 380.08 451.291 380.314 450.251C379.391 450.251 378.481 450.173 377.571 450.16M272.999 451.46C272.05 451.915 272.063 452.929 272.219 453.852C273.181 455.36 276.613 454.905 276.119 452.734C276.119 451.161 274.13 451.226 273.025 451.434M182.142 453.007L181.089 455.074C179.984 455.204 178.658 454.931 177.943 455.984C177.943 458.129 176.955 461.184 179.672 461.834C179.903 460.517 180.211 459.215 180.595 457.934C181.505 457.687 182.402 457.414 183.299 457.128C183.254 455.697 182.857 454.299 182.142 453.059M377.142 455.074C376.897 455.48 376.767 455.945 376.767 456.42C376.767 456.894 376.897 457.359 377.142 457.765C378.078 457.648 378.065 455.165 377.142 455.074ZM165.242 457.258C166.074 457.986 166.685 459.403 168.024 459.169C168.241 459.163 168.453 459.106 168.644 459.005C168.835 458.903 169 458.758 169.126 458.582C169.252 458.405 169.335 458.202 169.369 457.989C169.404 457.775 169.388 457.556 169.324 457.349C168.349 455.919 166.516 456.79 165.242 457.258ZM287.442 456.699C286.974 457.583 286.454 458.428 285.947 459.299C286.768 459.565 287.613 459.752 288.469 459.858C289.353 459 289.197 457.713 289.353 456.608L287.442 456.699ZM89.647 463.29C89.1313 464.29 88.868 465.402 88.88 466.527C89.803 467.242 90.687 468.009 91.61 468.75C91.9151 467.682 92.1325 466.591 92.26 465.487C91.415 464.72 90.778 463.641 89.66 463.29M363.401 463.134C363.401 464.044 363.401 464.967 363.336 465.903C365.34 467.062 367.673 467.52 369.966 467.203C371.89 462.393 365.637 463.563 363.401 463.147M157.234 468.49C156.272 469.4 157.754 470.999 158.651 469.894C159.6 469.075 158.053 467.658 157.234 468.49ZM94.977 470.531C94.4024 471.506 94.0848 472.611 94.054 473.742L92.988 474.574C92.988 475.419 92.988 476.277 92.988 477.174L94.821 477.044C95.432 475.497 96.264 474.041 96.797 472.468C97.265 471.311 96.082 470.44 95.016 470.557M224.483 473.235C224.652 474.327 224.483 475.627 225.432 476.459C225.904 476.566 226.397 476.524 226.843 476.338C227.29 476.152 227.667 475.832 227.923 475.422C228.179 475.011 228.301 474.531 228.271 474.049C228.242 473.566 228.063 473.104 227.759 472.728C227.057 470.921 225.471 472.728 224.483 473.235ZM154.036 473.599C151.813 475.393 154.036 479.15 157.13 477.59C157.13 476.654 157.13 475.731 157.13 474.821C156.142 474.262 155.219 473.313 153.997 473.599M70.888 477.382C70.186 478.032 69.133 478.682 69.432 479.8C70.732 481.568 73.553 479.943 73.254 478.045C72.9786 477.701 72.6022 477.452 72.1777 477.333C71.7532 477.214 71.3021 477.231 70.888 477.382ZM388.192 475.601C388.01 476.277 388.192 480.385 390.22 479.501C392.365 479.306 391.208 476.901 390.961 475.601C390.025 475.601 389.102 475.601 388.192 475.601ZM159.171 486.56C158.613 488.234 158.375 489.998 158.469 491.76C159.264 492.257 160.146 492.597 161.069 492.761C161.069 492.228 161.173 491.162 161.199 490.629L162.499 489.849C162.499 489.056 162.382 488.289 162.278 487.535C161.641 486.365 160.237 486.755 159.158 486.612M188.759 488.549C187.082 489.602 188.512 491.396 189.331 492.514C191.19 492.813 192.789 491.877 192.711 489.849C191.411 489.316 190.215 488.289 188.811 488.549M353.677 498.715H356.342C357.317 497.506 359.527 495.517 357.473 494.217C353.976 492.28 352.923 496.505 353.677 498.741M126.567 496.7C125.111 497.532 125.761 500.457 127.633 499.859C129.089 499.014 128.439 496.089 126.567 496.7ZM336.14 499.3C334.84 501.107 333.436 502.914 332.136 504.773C333.555 504.652 334.918 504.159 336.086 503.345C337.254 502.53 338.188 501.422 338.792 500.132C337.94 499.809 337.073 499.532 336.192 499.3M116.011 508.27C116.788 508.802 117.678 509.144 118.611 509.271L117.883 505.085C116.037 504.812 115.764 506.918 116.011 508.27ZM296.607 504.955C296.893 506.008 297.075 507.971 298.661 507.477C300.325 507.477 299.961 505.267 300.065 504.11C298.898 504.332 297.744 504.614 296.607 504.955ZM302.184 504.955C299.922 506.086 302.795 508.647 304.186 507.048C305.486 505.839 303.484 504.266 302.184 504.955ZM567.384 517.006C567.384 518.033 567.319 520.113 567.293 521.153L569.282 521.062C569.57 520.042 569.787 519.004 569.932 517.955C569.122 517.501 568.244 517.18 567.332 517.006M378.026 524.26C378.689 523.961 379.326 523.636 379.976 523.298C379.976 522.134 379.732 520.982 379.261 519.918C377.701 520.854 378.026 522.7 378.026 524.26ZM598.025 524.806C599.237 525.644 600.546 526.329 601.925 526.847C603.472 525.248 601.925 522.843 601.925 520.919C598.701 520.278 597.401 521.578 598.025 524.819M362.309 527.419C362.543 529.59 365.117 527.835 366.417 528.719C367.717 528.992 370.018 530.5 370.616 528.55L370.863 525.534C368.899 525.104 366.874 525.029 364.883 525.313C364.568 525.096 364.191 524.987 363.808 525.004C363.426 525.021 363.06 525.163 362.766 525.407C362.471 525.652 362.265 525.985 362.178 526.358C362.09 526.731 362.127 527.121 362.283 527.471M319.695 540.211H322.438C323.919 538.136 324.611 535.601 324.388 533.061C323.699 532.567 323.023 532.047 322.308 531.618C321.202 532.721 320.386 534.081 319.933 535.575C319.479 537.07 319.402 538.653 319.708 540.185M614.652 535.362C613.625 536.142 613.898 537.455 613.781 538.573C616.004 538.326 618.656 537.481 620.476 539.275C620.749 538.222 620.97 537.13 621.152 536.064L614.652 535.362ZM509.456 538.573C510.392 540.12 512.238 539.795 513.798 539.808C513.499 539.119 513.174 538.508 512.836 537.858C511.67 537.838 510.514 538.082 509.456 538.573ZM554.878 539.769C554.644 540.952 555.268 542.538 556.75 542.239C557.725 541.355 557.413 539.99 557.543 538.833C556.6 538.869 555.692 539.196 554.943 539.769M604.005 544.644C607.372 545.853 609.374 542.772 607.905 539.86C605.799 540.601 602.25 541.056 604.005 544.644ZM608.529 547.01L606.228 547.296C605.942 547.933 605.656 548.596 605.383 549.259C607.689 549.947 610.076 550.327 612.481 550.39C613.95 549.025 613.781 546.009 612.481 544.514C610.817 544.644 609.608 545.918 608.49 547.01M484.99 546.607C484.609 547.598 484.313 548.62 484.106 549.662L486.888 550.52C486.667 549.727 487.174 545.658 484.99 546.62M526.2 552.21C526.2 553.211 526.356 555.239 526.395 556.253C527.333 555.823 528.127 555.133 528.683 554.264C529.238 553.394 529.532 552.384 529.528 551.352C528.388 551.499 527.27 551.788 526.2 552.21ZM512.433 556.565C513.689 557.298 514.857 558.17 515.917 559.165L517.776 559.282L517.529 556.383C517.048 555.811 516.073 554.693 515.579 554.134C513.538 552.028 511.991 554.641 512.433 556.565ZM605.682 558.528L606.67 559.711C607.59 558.245 608.089 556.554 608.113 554.823C606.384 554.927 603.602 555.772 605.682 558.528ZM490.216 562.038C490.216 563.663 492.413 563.338 493.544 563.429C493.401 562.272 493.713 560.829 492.66 560.114C491.36 559.789 489.878 560.556 490.216 562.038ZM588.535 560.738C588.535 561.739 588.535 562.766 588.535 563.806C589.442 563.582 590.316 563.242 591.135 562.792C591.629 561.193 589.588 561.128 588.535 560.738ZM458.119 564.144C458.977 565.132 460.355 564.807 461.525 564.937C461.48 563.976 461.154 563.05 460.589 562.272C459.393 562.051 457.794 562.675 458.119 564.144ZM479.101 564.794C479.101 565.301 479.101 566.315 479.101 566.822L485.731 565.99C485.432 565.184 485.12 564.417 484.834 563.65L482.975 562.779C481.629 563.357 480.325 564.03 479.075 564.794M395.108 564.716C395.306 566.298 395.791 567.831 396.538 569.24L398.501 569.058C398.657 568.486 398.839 567.914 399.021 567.381C398.54 566.744 398.072 566.081 397.643 565.496L395.043 564.716M518.179 569.799C517.945 571.099 517.087 572.828 518.504 573.699C520.337 574.349 520.272 571.827 520.376 570.657L518.179 569.799ZM475.279 571.385C474.343 572.204 474.499 573.491 474.33 574.609H476.475C476.878 573.777 477.71 573.062 477.671 572.1C477.38 571.767 477.003 571.519 476.582 571.384C476.16 571.248 475.71 571.231 475.279 571.333M467.206 573.933C467.206 574.466 467.31 575.545 467.349 576.078C468.06 576.224 468.8 576.105 469.43 575.744C470.06 575.382 470.536 574.803 470.768 574.115C469.572 574.024 468.389 573.972 467.206 573.933ZM562.951 573.933C562.951 574.843 562.951 575.753 562.951 576.689L564.966 578.132C565.336 577.087 565.543 575.99 565.577 574.882C564.787 574.386 563.901 574.062 562.977 573.933M644.786 574.973C644.786 575.467 644.786 576.442 644.786 576.936C645.657 576.936 646.554 576.936 647.451 576.936C647.386 575.766 647.334 574.622 647.269 573.478C646.411 573.933 645.605 574.44 644.799 574.96M552.499 575.285L552.434 578.743L556.529 578.626C556.711 576.481 555.372 574.076 552.499 575.285ZM468.584 579.289C468.743 580.378 468.991 581.452 469.325 582.5C471.639 582.916 473.862 581.33 472.64 578.418L468.584 579.289ZM652.638 580.004C653.406 580.535 654.306 580.845 655.238 580.901C655.095 579.718 655.407 578.301 654.419 577.508C652.937 577.196 652.326 578.808 652.573 580.004M633.736 580.836C633.229 581.668 632.722 582.526 632.189 583.358C631.291 583.523 630.434 583.864 629.667 584.359C629.524 585.568 630.395 586.504 630.967 587.466L635.361 587.661C636.518 588.623 637.701 590.04 639.365 589.988C640.756 589.091 639.651 587.388 639.521 586.166H637.428C636.206 584.255 636.648 580.472 633.684 580.849M642.901 589.845C642.901 590.417 642.758 591.522 642.706 592.094L645.657 591.808C645.432 591.252 645.054 590.772 644.565 590.424C644.077 590.077 643.5 589.876 642.901 589.845ZM523.067 592.718C521.39 593.81 521.767 597.723 524.146 597.19C525.563 596.163 525.017 592.354 523.067 592.718ZM532.856 592.718C532.609 593.329 532.375 594.018 532.128 594.603C533.207 594.603 534.286 594.603 535.391 594.603C535.391 594.109 535.391 593.121 535.391 592.627C534.546 592.627 533.714 592.627 532.882 592.744M630.382 598.087C630.391 598.87 630.452 599.652 630.564 600.427C631.214 601.584 632.618 601.194 633.736 601.363C633.554 600.362 633.19 598.334 632.995 597.333C632.115 597.537 631.248 597.789 630.395 598.087M537.38 601.207C537.38 601.987 537.484 602.767 537.601 603.547C538.238 604.678 539.603 604.327 540.695 604.483C541.163 603.781 541.67 603.183 542.099 602.39C541.464 601.319 540.57 600.425 539.499 599.79C538.78 600.223 538.085 600.696 537.419 601.207M484.951 603.495C484.94 603.852 485.003 604.207 485.135 604.539C485.267 604.87 485.467 605.171 485.72 605.423C485.974 605.674 486.277 605.87 486.609 605.999C486.942 606.128 487.298 606.188 487.655 606.173C487.655 605.211 487.746 604.262 487.798 603.326C486.849 603.326 485.9 603.43 484.951 603.495ZM430.767 606.407C430.091 608.591 433.744 608.084 434.667 608.383C434.667 607.408 434.667 606.433 434.667 605.484L430.767 606.407ZM468.025 606.173C468.246 607.226 468.532 608.279 468.805 609.345H471.405C471.405 608.89 471.288 607.967 471.262 607.499C470.807 607.057 470.378 606.615 469.962 606.199H467.999M541.735 613.999C542.658 615.299 543.984 616.326 544.335 617.977C543.555 618.276 542.814 618.614 542.073 618.965C542.268 620.031 542.073 621.357 543.1 622.046C543.854 622.046 544.608 622.137 545.375 622.163C546.721 620.2 548.258 618.375 549.964 616.716C549.964 616.3 549.964 615.416 549.964 615.013C549.47 614.61 548.989 614.207 548.534 613.804C547.104 613.531 545.726 613.154 544.361 612.751C543.861 612.359 543.331 612.006 542.775 611.698C542.52 611.723 542.277 611.815 542.07 611.965C541.862 612.116 541.699 612.318 541.596 612.552C541.492 612.786 541.453 613.044 541.482 613.298C541.511 613.552 541.608 613.794 541.761 613.999M532.466 616.794C532.531 618.523 532.752 620.434 532.973 622.228C533.909 622.228 534.845 622.137 535.794 622.111C535.716 619.862 534.78 617.496 532.466 616.794ZM457.82 626.713C456.143 628.871 458.353 629.872 459.562 630.691C459.495 630.484 459.481 630.263 459.522 630.049C459.563 629.834 459.657 629.634 459.796 629.466C459.934 629.297 460.113 629.167 460.315 629.086C460.517 629.004 460.737 628.975 460.953 629.001C461.009 630.614 461.307 632.209 461.837 633.733C463.267 633.629 466.166 634.37 466.283 632.342C465.987 630.663 465.292 629.08 464.255 627.727C462.955 627.909 461.655 628.208 460.446 628.416C460.031 627.652 459.725 626.834 459.536 625.985C458.951 626.219 458.379 626.453 457.82 626.713ZM504.802 634.513C506.695 635.126 508.675 635.425 510.665 635.397C511.217 634.637 511.537 633.734 511.588 632.797C509.131 632.797 506.57 632.667 504.802 634.578M416.402 639.362C416.402 641.858 418.638 642.872 421.16 641.832C420.965 640.831 420.562 638.816 420.354 637.815C419.028 638.261 417.726 638.778 416.454 639.362M440.855 645.745C440.4 647.5 443 647.5 444.17 647.591C444.547 646.707 445.626 645.979 445.47 644.991C444.287 643.353 442.194 644.757 441.024 645.68M509.118 646.655C508.741 648.267 510.314 649.255 511.146 650.386L513.564 650.321C514.032 649.84 514.513 649.372 515.02 648.93C514.903 647.838 515.137 646.577 514.162 645.836C512.433 645.836 510.262 645.082 509.118 646.655ZM491.984 653.155H496.209C496.209 651.855 496.131 648.722 494.038 649.255C492.049 648.748 491.568 651.855 491.984 653.155ZM420.172 651.4C419.639 652.115 419.119 652.83 418.612 653.571C420.367 654.611 421.914 653.376 423.422 652.505C422.477 651.814 421.343 651.429 420.172 651.4ZM449.5 654.65C449.5 655.521 449.5 656.392 449.578 657.25C450.397 657.445 451.203 657.705 452.048 657.861C452.613 656.906 452.93 655.824 452.971 654.715L449.5 654.65ZM471.197 657.978C471.197 658.823 471.197 659.668 471.197 660.578C472.148 660.577 473.069 660.241 473.797 659.629C473.797 658.771 473.797 657.913 473.797 657.029C472.841 656.989 471.908 657.325 471.197 657.965M469.065 663.165C469.198 664.066 469.526 664.927 470.027 665.687C471.308 665.608 472.574 665.372 473.797 664.985C473.797 664.14 473.797 663.295 473.706 662.476L471.795 661.696C470.872 662.177 469.962 662.658 469.065 663.165Z" fill="#158F9C" fill-opacity="0.5"/>
</svg>
